<?xml version="1.0" standalone="no"?>
<!DOCTYPE svg PUBLIC "-//W3C//DTD SVG 20010904//EN"
 "http://www.w3.org/TR/2001/REC-SVG-20010904/DTD/svg10.dtd">
<svg version="1.0" xmlns="http://www.w3.org/2000/svg"
 width="512.000000pt" height="512.000000pt" viewBox="0 0 512.000000 512.000000"
 preserveAspectRatio="xMidYMid meet">
<metadata>
Created by potrace 1.15, written by Peter Selinger 2001-2017
</metadata>
<g transform="translate(0.000000,512.000000) scale(0.100000,-0.100000)"
fill="#ffffff" stroke="none">
<path d="M2461 4799 c-124 -24 -260 -128 -315 -240 -38 -78 -58 -200 -46 -275
l10 -58 -38 -39 c-20 -21 -220 -217 -444 -434 -225 -218 -408 -400 -408 -405
0 -4 74 -8 164 -8 l164 0 248 242 c137 133 292 283 344 334 l95 94 50 -40 c67
-53 151 -82 250 -88 113 -6 191 15 282 78 l71 49 94 -92 c51 -51 205 -201 343
-334 l250 -243 161 0 c88 0 164 3 167 6 4 4 -17 30 -46 58 -472 458 -599 581
-711 691 l-134 130 11 64 c20 121 -23 257 -114 362 -109 125 -278 182 -448
148z"/>
<path d="M439 2982 c-115 -30 -229 -123 -283 -231 -57 -112 -57 -97 -54 -1124
3 -926 3 -943 24 -998 42 -115 130 -216 231 -268 107 -54 -8 -51 2193 -51
1424 0 2054 3 2096 11 182 33 336 194 365 381 6 39 9 422 7 998 l-3 935 -23
60 c-54 136 -169 245 -304 286 -61 18 -125 19 -2123 18 -1911 0 -2065 -1
-2126 -17z m758 -811 c192 -28 342 -167 388 -360 26 -107 24 -260 -5 -346 -45
-136 -138 -236 -271 -292 -55 -23 -81 -27 -189 -31 -151 -5 -225 11 -320 68
-203 123 -284 416 -183 669 63 159 154 235 338 282 79 20 151 23 242 10z
m2613 -22 c22 -8 39 -30 103 -134 6 -11 25 -40 40 -64 15 -23 39 -64 53 -90
13 -25 44 -80 68 -121 25 -41 59 -103 77 -137 17 -35 35 -63 39 -63 5 0 7 126
7 279 l-2 280 28 29 c38 40 87 47 144 22 73 -32 73 -31 73 -497 0 -387 -1
-410 -20 -440 -41 -68 -138 -84 -206 -34 -66 49 -89 78 -179 236 -16 29 -35
59 -41 66 -7 8 -24 37 -38 64 -145 269 -136 272 -129 -41 5 -230 4 -263 -11
-291 -32 -62 -127 -84 -181 -41 -54 42 -55 53 -55 488 0 418 2 445 44 479 35
29 125 34 186 10z m-1465 -22 c70 -23 148 -90 176 -152 47 -102 33 -267 -28
-358 -56 -82 -130 -107 -332 -114 l-154 -6 5 -87 c8 -132 -4 -188 -47 -227
-30 -29 -42 -33 -88 -33 -47 0 -57 4 -84 33 -17 17 -36 42 -42 54 -8 15 -11
144 -11 413 0 432 1 442 62 480 31 20 44 21 263 17 177 -3 242 -8 280 -20z
m1023 12 c89 -31 86 -163 -5 -188 -21 -6 -125 -11 -230 -11 l-193 0 0 -85 0
-84 168 3 c187 2 213 -2 254 -41 30 -29 35 -57 16 -97 -24 -55 -47 -61 -250
-64 l-188 -4 0 -99 0 -99 205 0 c237 0 266 -7 290 -65 13 -30 13 -39 1 -69
-29 -70 -35 -71 -376 -74 -283 -2 -308 -1 -340 16 -59 32 -61 47 -58 493 3
386 4 398 24 426 11 15 32 34 45 40 31 17 591 18 637 2z"/>
<path d="M1010 1941 c-74 -27 -113 -71 -141 -162 -38 -126 -14 -276 59 -356
88 -96 270 -84 344 23 80 115 74 327 -13 438 -51 65 -158 89 -249 57z"/>
<path d="M2020 1825 l0 -117 105 4 c99 3 106 5 132 31 24 23 28 36 28 82 0 46
-4 59 -27 82 -26 26 -34 28 -133 31 l-105 4 0 -117z"/>
</g>
</svg>
